<?xml version="1.0" encoding="UTF-8"?>
<svg id="Ebene_2" xmlns="http://www.w3.org/2000/svg" width="1200" height="1200" version="1.1" viewBox="0 0 1200 1200">
  <!-- Generator: Adobe Illustrator 29.0.1, SVG Export Plug-In . SVG Version: 2.1.0 Build 192)  -->
  <defs>
    <style>
      .st0 {
        fill: none;
        stroke: #000;
        stroke-linecap: round;
        stroke-linejoin: round;
        stroke-width: 30px;
      }
    </style>
  </defs>
  <polygon class="st0" points="382.9 619 438.6 706.7 757.3 706.7 819.7 619 382.9 619"/>
  <path class="st0" d="M868.6,706.7l55.7-87.7h167l-14.2,35.2c-12.8,31.7-43.6,52.5-77.9,52.5h-130.5Z"/>
  <path class="st0" d="M331.9,706.7l-55.7-87.7H109.3l14.2,35.2c12.8,31.7,43.6,52.5,77.9,52.5h130.5Z"/>
  <rect class="st0" x="38.3" y="351.6" width="166.4" height="77" rx="38.5" ry="38.5"/>
  <rect class="st0" x="1001.7" y="351.6" width="158.1" height="77" rx="38.5" ry="38.5"/>
  <path class="st0" d="M47.8,899.9v111.1c0,23.3,18.9,42.3,42.3,42.3h126.4c23.3,0,42.3-18.9,42.3-42.3v-91"/>
  <path class="st0" d="M1155.2,899.9v111.1c0,23.3-18.9,42.3-42.3,42.3h-126.4c-23.3,0-42.3-18.9-42.3-42.3v-91"/>
  <path class="st0" d="M24.2,634.5v203.1c0,40.8,33.1,73.9,73.9,73.9h1006.2c40.8,0,73.9-33.1,73.9-73.9v-203.1c0-22-9.2-43.1-25.3-58.1l-134.9-125.6-83.2-238.5c-17.5-50.2-64.8-83.7-117.9-83.7h-433.8c-53.2,0-100.6,33.7-118,84l-83.4,240.5-132.2,123.3c-16.1,15-25.2,36-25.2,58Z"/>
  <polyline class="st0" points="331.9 911.6 355.5 834.9 853.8 834.9 882.6 911.6"/>
  <line class="st0" x1="181.7" y1="453.2" x2="1018" y2="453.2"/>
</svg>